# xmcd
#
# Track frame offsets:
#	150
#	15061
#	30415
#	41632
#	55092
#	68772
#	90679
#	104776
#	120822
#	132940
#	146733
#	159689
#	173435
#	190911
#	202402
#	217375
#	233798
#	246949
#	263621
#	281849
#	295914
#	311740
#	326212
#
# Disc length: 4513 seconds
#
# Revision: 1
# Processed by: cddbd v1.5.2PL0 Copyright (c) Steve Scherf et al.
# Submitted via: audiograbber 1.82.02
#
DISCID=5b119f17
DTITLE=Various Artist - The Balladeers Vol 6
DYEAR=2004
DGENRE=Country
TTITLE0=Matt Manning - You've Got To Go West Young Fella
TTITLE1=Anita Ree - Muddy Mary River
TTITLE2=Dave McCallum - The White Bull From Aramac
TTITLE3=Graham Rodger - Middleton Hotel
TTITLE4=Keith Jamieson - The Blue Gum Tree Ball
TTITLE5=Jeff Brown - Sandy Kid
TTITLE6=Graeme Johnson - The Aussie Character
TTITLE7=Margaret Rackley - Contrasts
TTITLE8=Alisha Smith - Warrigal Creek
TTITLE9=Lorraine Pfitzner - Sunset Vision
TTITLE10=Ned Winter - That Outback Country
TTITLE11=Doug Dayman - Never Was At All
TTITLE12=Jim Welsh - Fletcher's Place
TTITLE13=John P Toomey - My Old Jack Weineke Saddle
TTITLE14=Charmaine Pout - Rodeo Cowgirl
TTITLE15=Buzzer Bitter - The Ned Kelly Song
TTITLE16=Pat Pincott - Where We Boiled The Billy
TTITLE17=Barry K Chandler - Goodbye Slim
TTITLE18=Viv Kehl - Old Man's Kingdom
TTITLE19=David Croser - Proud To Be A Farmer
TTITLE20=Michael Pincott - Harry Puet, Western Pioneer
TTITLE21=Lynn Manning - Pikapene
TTITLE22=Ken Lindsay - Heaven's Party
EXTD=
EXTT0=
EXTT1=
EXTT2=
EXTT3=
EXTT4=
EXTT5=
EXTT6=
EXTT7=
EXTT8=
EXTT9=
EXTT10=
EXTT11=
EXTT12=
EXTT13=
EXTT14=
EXTT15=
EXTT16=
EXTT17=
EXTT18=
EXTT19=
EXTT20=
EXTT21=
EXTT22=
PLAYORDER=
